<?xml version="1.0" encoding="UTF-8" standalone="no"?>
<svg
   viewBox="0 0 744.66 594.92"
   version="1.1"
   id="svg168"
   sodipodi:docname="intro.svg"
   inkscape:version="1.1.2 (0a00cf5339, 2022-02-04)"
   xmlns:inkscape="http://www.inkscape.org/namespaces/inkscape"
   xmlns:sodipodi="http://sodipodi.sourceforge.net/DTD/sodipodi-0.dtd"
   xmlns="http://www.w3.org/2000/svg"
   xmlns:svg="http://www.w3.org/2000/svg">
  <sodipodi:namedview
     id="namedview170"
     pagecolor="#505050"
     bordercolor="#eeeeee"
     borderopacity="1"
     inkscape:pageshadow="0"
     inkscape:pageopacity="0"
     inkscape:pagecheckerboard="0"
     showgrid="false"
     inkscape:zoom="0.32864088"
     inkscape:cx="254.07673"
     inkscape:cy="257.11957"
     inkscape:window-width="1366"
     inkscape:window-height="699"
     inkscape:window-x="0"
     inkscape:window-y="0"
     inkscape:window-maximized="1"
     inkscape:current-layer="svg168" />
  <defs
     id="defs4">
    <style
       id="style2">.cls-1,.cls-11,.cls-13,.cls-2,.cls-3{fill:none;stroke-linecap:round;}.cls-1,.cls-13,.cls-2{stroke:#000;}.cls-1,.cls-2,.cls-3{stroke-miterlimit:10;}.cls-1{stroke-width:4px;}.cls-13,.cls-2{stroke-width:2px;}.cls-3{stroke:#1f161e;}.cls-4{fill:#fbdc8e;}.cls-5{fill:#969696;}.cls-6{fill:#ab8de5;}.cls-7{fill:#78e5e1;}.cls-8{fill:#d8d8d8;}.cls-9{fill:#64ccc4;}.cls-10,.cls-12{fill:#fff;}.cls-11{stroke:#969696;stroke-width:0.82px;}.cls-11,.cls-13{stroke-linejoin:round;}.cls-12{font-size:7.3px;font-family:SofiaPro-Bold, Sofia Pro;font-weight:700;}.cls-14{fill:#1f161e;}.cls-15{fill:#55b79d;}.cls-16{fill:#f8cdba;}.cls-17{fill:#fa9e9f;}</style>
  </defs>
  <title
     id="title6">example-scene-2</title>
  <g
     id="g8642"
     transform="matrix(1.8116558,0,0,1.8116558,5049.9955,-849.68939)"
     inkscape:export-filename="/tmp/flor.png"
     inkscape:export-xdpi="96"
     inkscape:export-ydpi="96">
    <g
       transform="matrix(0.69164606,0,0,0.69164606,-453.92392,751.6779)"
       id="g5309-5-5-7">
      <g
         id="g5220-5-3-6-5"
         transform="translate(-415.32179,175.57036)">
        <path
           id="path5083-7-9-5-2-3"
           d="m -2689.9147,-502.84424 c -5.3952,-0.085 -11.4269,1.49356 -16.5235,5.44141 -6.7954,5.2638 -11.9443,13.65108 -16.1406,26.04101 a 10,10 0 0 0 6.2637,12.67774 10,10 0 0 0 12.6797,-6.26172 c 3.4385,-10.15246 7.1875,-14.89564 9.4453,-16.64453 2.2577,-1.74889 3.009,-1.59262 4.8672,-1.16016 3.7162,0.86493 9.207,6.16797 9.207,6.16797 a 10.001,10.001 0 0 0 14.6133,0.75391 c 4.779,-4.62621 8.2761,-6.21956 10.3965,-6.70703 2.1203,-0.48747 3.145,-0.18216 4.3964,0.42187 2.5029,1.20806 4.5352,4.24805 4.5352,4.24805 a 10.001,10.001 0 0 0 13.9297,3.79101 c 5.7556,-3.45443 9.2863,-3.98298 11.0234,-3.88476 1.7372,0.0982 2.2829,0.51131 3.252,1.50976 1.9381,1.99691 3.1933,6.43946 3.1933,6.43946 a 10.001,10.001 0 0 0 0.047,0.2539 c 9.2706,45.88595 -27.6152,86.72071 -27.6152,86.72071 a 10,10 0 0 0 0.5156,14.13281 10,10 0 0 0 14.1309,-0.51563 c 0,0 44.1695,-46.37252 32.5957,-104.14257 -0.02,-0.15963 -1.1965,-9.27731 -8.5157,-16.81836 -3.6917,-3.8036 -9.5329,-7.15441 -16.4746,-7.54688 -4.6566,-0.26328 -9.5601,0.77001 -14.7031,2.8711 -1.9526,-1.81534 -4.2235,-3.62364 -7.2207,-5.07032 -4.6612,-2.24985 -10.9752,-3.41661 -17.5703,-1.90039 -4.1693,0.95853 -8.34,2.9793 -12.5195,5.875 -3.2699,-2.40523 -7.3627,-4.84166 -12.6836,-6.08008 -1.5989,-0.37212 -3.3266,-0.58493 -5.125,-0.61328 z"
           style="color:#000000;font-style:normal;font-variant:normal;font-weight:normal;font-stretch:normal;font-size:medium;line-height:normal;font-family:sans-serif;font-variant-ligatures:normal;font-variant-position:normal;font-variant-caps:normal;font-variant-numeric:normal;font-variant-alternates:normal;font-feature-settings:normal;text-indent:0;text-align:start;text-decoration:none;text-decoration-line:none;text-decoration-style:solid;text-decoration-color:#000000;letter-spacing:normal;word-spacing:normal;text-transform:none;writing-mode:lr-tb;direction:ltr;text-orientation:mixed;dominant-baseline:auto;baseline-shift:baseline;text-anchor:start;white-space:normal;shape-padding:0;clip-rule:nonzero;display:inline;overflow:visible;visibility:visible;isolation:auto;mix-blend-mode:normal;color-interpolation:sRGB;color-interpolation-filters:linearRGB;solid-color:#000000;solid-opacity:1;vector-effect:none;fill:#ee751e;fill-opacity:1;fill-rule:nonzero;stroke:none;stroke-width:20;stroke-linecap:round;stroke-linejoin:round;stroke-miterlimit:4;stroke-dasharray:none;stroke-dashoffset:0;stroke-opacity:1;color-rendering:auto;image-rendering:auto;shape-rendering:auto;text-rendering:auto;enable-background:accumulate"
           inkscape:connector-curvature="0" />
        <path
           id="path5087-9-2-6-9-56"
           d="m -2555.3054,-448.64111 a 10,10 0 0 0 -9.8769,9.85742 10,10 0 0 0 9.8574,10.14063 c 10.7179,0.15245 16.3841,2.26386 18.7422,3.875 2.3581,1.61113 2.4402,2.37232 2.5996,4.27343 0.3189,3.80222 -3.041,10.65821 -3.041,10.65821 a 10.001,10.001 0 0 0 3.7715,14.13671 c 5.8709,3.12625 8.4627,5.966 9.5781,7.83399 1.1155,1.86799 1.1395,2.93601 0.9492,4.3125 -0.3805,2.75298 -2.6484,5.62305 -2.6484,5.62305 a 10.001,10.001 0 0 0 0.6719,14.41796 c 5.0559,4.41568 6.6436,7.61558 7.0839,9.29883 0.4404,1.68326 0.2149,2.3296 -0.4375,3.5586 -1.3047,2.45798 -5.1464,5.01562 -5.1464,5.01562 a 10.001,10.001 0 0 0 -0.2266,0.125 c -40.8172,22.92219 -91.0117,0.36719 -91.0117,0.36719 a 10,10 0 0 0 -13.2891,4.83203 10,10 0 0 0 4.832,13.29102 c 0,0 57.6934,27.77788 109.1094,-0.97852 0.1285,-0.0603 8.4662,-3.98333 13.3985,-13.27539 2.4851,-4.68187 3.8806,-11.27167 2.1211,-17.99805 -1.1803,-4.51164 -3.671,-8.85938 -7.25,-13.10742 1.1277,-2.41626 2.1477,-5.13433 2.6035,-8.43164 0.7086,-5.12704 -0.1204,-11.49457 -3.5899,-17.30469 -2.1933,-3.67299 -5.3976,-7.01992 -9.4375,-10.10742 1.2841,-3.85078 2.3453,-8.49342 1.8887,-13.9375 -0.5487,-6.54336 -4.1508,-14.26803 -11.248,-19.11719 -7.0973,-4.84916 -16.6584,-7.17332 -29.7383,-7.35937 a 10,10 0 0 0 -0.2657,0 z"
           style="color:#000000;font-style:normal;font-variant:normal;font-weight:normal;font-stretch:normal;font-size:medium;line-height:normal;font-family:sans-serif;font-variant-ligatures:normal;font-variant-position:normal;font-variant-caps:normal;font-variant-numeric:normal;font-variant-alternates:normal;font-feature-settings:normal;text-indent:0;text-align:start;text-decoration:none;text-decoration-line:none;text-decoration-style:solid;text-decoration-color:#000000;letter-spacing:normal;word-spacing:normal;text-transform:none;writing-mode:lr-tb;direction:ltr;text-orientation:mixed;dominant-baseline:auto;baseline-shift:baseline;text-anchor:start;white-space:normal;shape-padding:0;clip-rule:nonzero;display:inline;overflow:visible;visibility:visible;isolation:auto;mix-blend-mode:normal;color-interpolation:sRGB;color-interpolation-filters:linearRGB;solid-color:#000000;solid-opacity:1;vector-effect:none;fill:#ee751e;fill-opacity:1;fill-rule:nonzero;stroke:none;stroke-width:20;stroke-linecap:round;stroke-linejoin:round;stroke-miterlimit:4;stroke-dasharray:none;stroke-dashoffset:0;stroke-opacity:1;color-rendering:auto;image-rendering:auto;shape-rendering:auto;text-rendering:auto;enable-background:accumulate"
           inkscape:connector-curvature="0" />
        <path
           id="path5091-20-2-2-1-2"
           d="m -2650.3327,-318.1626 a 10,10 0 0 0 -10.0313,8.83985 c 0,0 -8.1955,63.49745 35.2793,103.24219 0.086,0.0903 6.4457,6.78609 16.8282,8.54297 5.2262,0.88437 11.9199,0.13394 17.75,-3.65429 3.9106,-2.54103 7.2533,-6.27478 10.1582,-11.00979 2.6484,0.30943 5.5492,0.42413 8.8222,-0.18163 5.0894,-0.94195 10.8711,-3.73483 15.293,-8.85741 2.7955,-3.23842 4.9648,-7.33393 6.6231,-12.14064 4.0588,0.006 8.7997,-0.45027 13.8222,-2.59765 6.0377,-2.58141 12.2361,-8.43212 14.6035,-16.69532 2.3675,-8.26319 1.5597,-18.06993 -2.3828,-30.54296 a 10,10 0 0 0 -12.5488,-6.52149 10,10 0 0 0 -6.5215,12.54883 c 3.2305,10.22056 3.0132,16.26236 2.2266,19.00781 -0.7866,2.74545 -1.4861,3.06446 -3.2403,3.81446 -3.5083,1.49999 -11.0703,0.46875 -11.0703,0.46875 a 10.001,10.001 0 0 0 -12.2324,8.0332 c -1.1184,6.55667 -2.9963,9.90968 -4.418,11.55663 -1.4217,1.64696 -2.4285,2.0069 -3.7949,2.25978 -2.7327,0.50578 -6.1699,-0.74414 -6.1699,-0.74414 a 10.001,10.001 0 0 0 -13.4746,5.17967 c -2.5989,6.18921 -5.1329,8.70241 -6.5918,9.65041 -1.459,0.94798 -2.1437,0.93917 -3.5156,0.70702 -2.7439,-0.46429 -6.3828,-3.30663 -6.3828,-3.30663 a 10.001,10.001 0 0 0 -0.1895,-0.17579 c -34.6095,-31.52194 -29.0078,-86.26367 -29.0078,-86.26367 a 10,10 0 0 0 -8.7735,-11.09375 10,10 0 0 0 -1.0605,-0.0664 z"
           style="color:#000000;font-style:normal;font-variant:normal;font-weight:normal;font-stretch:normal;font-size:medium;line-height:normal;font-family:sans-serif;font-variant-ligatures:normal;font-variant-position:normal;font-variant-caps:normal;font-variant-numeric:normal;font-variant-alternates:normal;font-feature-settings:normal;text-indent:0;text-align:start;text-decoration:none;text-decoration-line:none;text-decoration-style:solid;text-decoration-color:#000000;letter-spacing:normal;word-spacing:normal;text-transform:none;writing-mode:lr-tb;direction:ltr;text-orientation:mixed;dominant-baseline:auto;baseline-shift:baseline;text-anchor:start;white-space:normal;shape-padding:0;clip-rule:nonzero;display:inline;overflow:visible;visibility:visible;isolation:auto;mix-blend-mode:normal;color-interpolation:sRGB;color-interpolation-filters:linearRGB;solid-color:#000000;solid-opacity:1;vector-effect:none;fill:#ee751e;fill-opacity:1;fill-rule:nonzero;stroke:none;stroke-width:20;stroke-linecap:round;stroke-linejoin:round;stroke-miterlimit:4;stroke-dasharray:none;stroke-dashoffset:0;stroke-opacity:1;color-rendering:auto;image-rendering:auto;shape-rendering:auto;text-rendering:auto;enable-background:accumulate"
           inkscape:connector-curvature="0" />
        <path
           id="path5095-2-8-9-2-9"
           d="m -2687.6257,-340.46728 a 10,10 0 0 0 -1.8711,0.16015 c 0,0 -63.1467,10.62702 -88.5254,63.79297 -0.071,0.12544 -4.6107,8.14098 -3.2734,18.57422 0.6739,5.25754 3.3381,11.44366 8.6582,15.91992 3.5684,3.00241 8.1134,5.11339 13.4883,6.51563 0.4742,2.62408 1.2086,5.43311 2.7402,8.38866 2.3814,4.59542 6.7347,9.31569 12.9219,12.05664 3.911,1.7326 8.4606,2.61591 13.541,2.80469 1.1748,3.88551 2.9901,8.28924 6.5059,12.47071 4.2258,5.02587 11.6261,9.25338 20.2207,9.11524 8.5945,-0.13816 17.744,-3.76248 28.5312,-11.16211 a 10,10 0 0 0 2.5899,-13.90234 10,10 0 0 0 -13.9043,-2.58985 c -8.8392,6.06335 -14.6835,7.61034 -17.5391,7.65625 -2.8555,0.0459 -3.3621,-0.52806 -4.5898,-1.98827 -2.4555,-2.92044 -3.67,-10.45704 -3.6699,-10.45704 a 10.001,10.001 0 0 0 -11.2422,-9.36718 c -6.5986,0.83685 -10.3526,0.0159 -12.3418,-0.86524 -1.9893,-0.88125 -2.6263,-1.74088 -3.2657,-2.97463 -1.2786,-2.46748 -1.0839,-6.11913 -1.0839,-6.11913 a 10.001,10.001 0 0 0 -8.8731,-11.38476 c -6.6775,-0.68647 -9.821,-2.38177 -11.1523,-3.50196 -1.3314,-1.12018 -1.5204,-1.77807 -1.6973,-3.1582 -0.3538,-2.76026 1.3066,-7.06836 1.3066,-7.06836 a 10.001,10.001 0 0 0 0.1133,-0.23047 c 20.0937,-42.28123 74.0977,-52.84375 74.0977,-52.84375 a 10,10 0 0 0 8.0625,-11.62109 10,10 0 0 0 -9.7481,-8.2207 z"
           style="color:#000000;font-style:normal;font-variant:normal;font-weight:normal;font-stretch:normal;font-size:medium;line-height:normal;font-family:sans-serif;font-variant-ligatures:normal;font-variant-position:normal;font-variant-caps:normal;font-variant-numeric:normal;font-variant-alternates:normal;font-feature-settings:normal;text-indent:0;text-align:start;text-decoration:none;text-decoration-line:none;text-decoration-style:solid;text-decoration-color:#000000;letter-spacing:normal;word-spacing:normal;text-transform:none;writing-mode:lr-tb;direction:ltr;text-orientation:mixed;dominant-baseline:auto;baseline-shift:baseline;text-anchor:start;white-space:normal;shape-padding:0;clip-rule:nonzero;display:inline;overflow:visible;visibility:visible;isolation:auto;mix-blend-mode:normal;color-interpolation:sRGB;color-interpolation-filters:linearRGB;solid-color:#000000;solid-opacity:1;vector-effect:none;fill:#ee751e;fill-opacity:1;fill-rule:nonzero;stroke:none;stroke-width:20;stroke-linecap:round;stroke-linejoin:round;stroke-miterlimit:4;stroke-dasharray:none;stroke-dashoffset:0;stroke-opacity:1;color-rendering:auto;image-rendering:auto;shape-rendering:auto;text-rendering:auto;enable-background:accumulate"
           inkscape:connector-curvature="0" />
        <path
           id="path5099-3-9-1-7-1"
           d="m -2765.3932,-439.18994 c -3.4903,0.18304 -8.1637,0.96495 -12.8926,3.35938 -4.7289,2.39442 -9.6657,6.97501 -12.1035,13.48632 -1.6353,4.36782 -2.1045,9.35772 -1.627,14.89258 -2.3141,1.32496 -4.7138,2.95637 -6.9863,5.38867 -3.5336,3.78191 -6.5267,9.46321 -7.0391,16.21094 -0.3239,4.26557 0.3682,8.84818 1.8906,13.69922 -3.2684,2.40731 -6.8122,5.59206 -9.5761,10.30469 -3.322,5.66403 -4.8286,14.05072 -1.8223,22.10351 3.0063,8.0528 9.4816,15.46327 20.0645,23.15235 a 10,10 0 0 0 13.9687,-2.21289 10,10 0 0 0 -2.2129,-13.96875 c -8.6717,-6.30053 -12.0851,-11.28929 -13.084,-13.96485 -0.9988,-2.67556 -0.6272,-3.34655 0.3379,-4.99219 1.9304,-3.29127 8.627,-6.95703 8.627,-6.95703 a 10.001,10.001 0 0 0 5.0625,-13.72851 c -2.9968,-5.938 -3.4773,-9.7505 -3.3125,-11.91992 0.1647,-2.16943 0.7603,-3.05691 1.709,-4.07227 1.8973,-2.03071 5.4023,-3.07031 5.4023,-3.07031 a 10.001,10.001 0 0 0 7.7617,-12.17188 c -1.5877,-6.52225 -1.0436,-10.05025 -0.4336,-11.67968 0.6101,-1.62944 1.1669,-2.02967 2.4082,-2.65821 2.4827,-1.25707 7.0977,-1.13281 7.0977,-1.13281 a 10.001,10.001 0 0 0 0.2558,0.0293 c 46.568,4.78581 74.5938,52.14257 74.5938,52.14257 a 10,10 0 0 0 13.6484,3.70899 10,10 0 0 0 3.7071,-13.64844 c 0,0 -31.1474,-55.95136 -89.7442,-62.07226 -0.076,-0.0135 -2.2697,-0.40848 -5.7011,-0.22852 z"
           style="color:#000000;font-style:normal;font-variant:normal;font-weight:normal;font-stretch:normal;font-size:medium;line-height:normal;font-family:sans-serif;font-variant-ligatures:normal;font-variant-position:normal;font-variant-caps:normal;font-variant-numeric:normal;font-variant-alternates:normal;font-feature-settings:normal;text-indent:0;text-align:start;text-decoration:none;text-decoration-line:none;text-decoration-style:solid;text-decoration-color:#000000;letter-spacing:normal;word-spacing:normal;text-transform:none;writing-mode:lr-tb;direction:ltr;text-orientation:mixed;dominant-baseline:auto;baseline-shift:baseline;text-anchor:start;white-space:normal;shape-padding:0;clip-rule:nonzero;display:inline;overflow:visible;visibility:visible;isolation:auto;mix-blend-mode:normal;color-interpolation:sRGB;color-interpolation-filters:linearRGB;solid-color:#000000;solid-opacity:1;vector-effect:none;fill:#ee751e;fill-opacity:1;fill-rule:nonzero;stroke:none;stroke-width:20;stroke-linecap:round;stroke-linejoin:round;stroke-miterlimit:4;stroke-dasharray:none;stroke-dashoffset:0;stroke-opacity:1;color-rendering:auto;image-rendering:auto;shape-rendering:auto;text-rendering:auto;enable-background:accumulate"
           inkscape:connector-curvature="0" />
        <path
           d="m -2639.7988,-342.96057 a 13.143041,13.143041 0 0 1 -13.143,13.14304 13.143041,13.143041 0 0 1 -13.1431,-13.14304 13.143041,13.143041 0 0 1 13.1431,-13.14304 13.143041,13.143041 0 0 1 13.143,13.14304"
           style="fill:#ee751e;fill-opacity:1;stroke:#ee751e;stroke-width:4.99999;stroke-linecap:round;stroke-linejoin:round;stroke-miterlimit:4;stroke-dasharray:none;stroke-opacity:1"
           id="path1225-1-7-7-2-0-2"
           inkscape:connector-curvature="0" />
      </g>
      <g
         transform="translate(33.22451,69.218454)"
         id="g5212-3-7-9-7">
        <path
           id="path5083-0-6-0-3-0"
           d="m -3146.7763,-396.70307 c -5.3952,-0.085 -11.4269,1.49356 -16.5235,5.44141 -6.7954,5.2638 -11.9443,13.65108 -16.1406,26.04101 a 10,10 0 0 0 6.2637,12.67774 10,10 0 0 0 12.6797,-6.26172 c 3.4385,-10.15246 7.1875,-14.89564 9.4453,-16.64453 2.2577,-1.74889 3.009,-1.59262 4.8672,-1.16016 3.7162,0.86493 9.207,6.16797 9.207,6.16797 a 10.001,10.001 0 0 0 14.6133,0.75391 c 4.779,-4.62621 8.2761,-6.21956 10.3965,-6.70703 2.1203,-0.48747 3.145,-0.18216 4.3964,0.42187 2.5029,1.20806 4.5352,4.24805 4.5352,4.24805 a 10.001,10.001 0 0 0 13.9297,3.79101 c 5.7556,-3.45443 9.2863,-3.98298 11.0234,-3.88476 1.7372,0.0982 2.2829,0.51131 3.252,1.50976 1.9381,1.99691 3.1933,6.43946 3.1933,6.43946 a 10.001,10.001 0 0 0 0.047,0.2539 c 9.2706,45.88595 -27.6152,86.72071 -27.6152,86.72071 a 10,10 0 0 0 0.5156,14.13281 10,10 0 0 0 14.1309,-0.51563 c 0,0 44.1695,-46.37252 32.5957,-104.14257 -0.02,-0.15963 -1.1965,-9.27731 -8.5157,-16.81836 -3.6917,-3.8036 -9.5329,-7.15441 -16.4746,-7.54688 -4.6566,-0.26328 -9.5601,0.77001 -14.7031,2.8711 -1.9526,-1.81534 -4.2235,-3.62364 -7.2207,-5.07032 -4.6612,-2.24985 -10.9752,-3.41661 -17.5703,-1.90039 -4.1693,0.95853 -8.34,2.9793 -12.5195,5.875 -3.2699,-2.40523 -7.3627,-4.84166 -12.6836,-6.08008 -1.5989,-0.37212 -3.3266,-0.58493 -5.125,-0.61328 z"
           style="color:#000000;font-style:normal;font-variant:normal;font-weight:normal;font-stretch:normal;font-size:medium;line-height:normal;font-family:sans-serif;font-variant-ligatures:normal;font-variant-position:normal;font-variant-caps:normal;font-variant-numeric:normal;font-variant-alternates:normal;font-feature-settings:normal;text-indent:0;text-align:start;text-decoration:none;text-decoration-line:none;text-decoration-style:solid;text-decoration-color:#000000;letter-spacing:normal;word-spacing:normal;text-transform:none;writing-mode:lr-tb;direction:ltr;text-orientation:mixed;dominant-baseline:auto;baseline-shift:baseline;text-anchor:start;white-space:normal;shape-padding:0;clip-rule:nonzero;display:inline;overflow:visible;visibility:visible;isolation:auto;mix-blend-mode:normal;color-interpolation:sRGB;color-interpolation-filters:linearRGB;solid-color:#000000;solid-opacity:1;vector-effect:none;fill:#68d070;fill-opacity:1;fill-rule:nonzero;stroke:none;stroke-width:20;stroke-linecap:round;stroke-linejoin:round;stroke-miterlimit:4;stroke-dasharray:none;stroke-dashoffset:0;stroke-opacity:1;color-rendering:auto;image-rendering:auto;shape-rendering:auto;text-rendering:auto;enable-background:accumulate"
           inkscape:connector-curvature="0" />
        <path
           id="path5087-6-1-9-6-9"
           d="m -3012.167,-342.49994 a 10,10 0 0 0 -9.8769,9.85742 10,10 0 0 0 9.8574,10.14063 c 10.7179,0.15245 16.3842,2.26386 18.7422,3.875 2.3581,1.61113 2.4402,2.37232 2.5996,4.27343 0.3189,3.80222 -3.041,10.65821 -3.041,10.65821 a 10.001,10.001 0 0 0 3.7715,14.13671 c 5.8709,3.12625 8.4627,5.966 9.5782,7.83399 1.1155,1.86799 1.1395,2.93601 0.9491,4.3125 -0.3805,2.75298 -2.6484,5.62305 -2.6484,5.62305 a 10.001,10.001 0 0 0 0.672,14.41796 c 5.0558,4.41568 6.6435,7.61558 7.0839,9.29883 0.4404,1.68326 0.2148,2.3296 -0.4376,3.5586 -1.3046,2.45798 -5.1463,5.01562 -5.1463,5.01562 a 10.001,10.001 0 0 0 -0.2267,0.125 c -40.8172,22.92219 -91.0117,0.36719 -91.0117,0.36719 a 10,10 0 0 0 -13.2891,4.83203 10,10 0 0 0 4.832,13.29102 c 0,0 57.6934,27.77788 109.1094,-0.97852 0.1285,-0.0603 8.4663,-3.98333 13.3985,-13.27539 2.4851,-4.68187 3.8807,-11.27167 2.1211,-17.99805 -1.1803,-4.51164 -3.6709,-8.85938 -7.25,-13.10742 1.1277,-2.41626 2.1477,-5.13433 2.6035,-8.43164 0.7086,-5.12704 -0.1203,-11.49457 -3.5899,-17.30469 -2.1932,-3.67299 -5.3976,-7.01992 -9.4375,-10.10742 1.2841,-3.85078 2.3453,-8.49342 1.8887,-13.9375 -0.5486,-6.54336 -4.1508,-14.26803 -11.2479,-19.11719 -7.0974,-4.84916 -16.6585,-7.17332 -29.7384,-7.35937 a 10,10 0 0 0 -0.2657,0 z"
           style="color:#000000;font-style:normal;font-variant:normal;font-weight:normal;font-stretch:normal;font-size:medium;line-height:normal;font-family:sans-serif;font-variant-ligatures:normal;font-variant-position:normal;font-variant-caps:normal;font-variant-numeric:normal;font-variant-alternates:normal;font-feature-settings:normal;text-indent:0;text-align:start;text-decoration:none;text-decoration-line:none;text-decoration-style:solid;text-decoration-color:#000000;letter-spacing:normal;word-spacing:normal;text-transform:none;writing-mode:lr-tb;direction:ltr;text-orientation:mixed;dominant-baseline:auto;baseline-shift:baseline;text-anchor:start;white-space:normal;shape-padding:0;clip-rule:nonzero;display:inline;overflow:visible;visibility:visible;isolation:auto;mix-blend-mode:normal;color-interpolation:sRGB;color-interpolation-filters:linearRGB;solid-color:#000000;solid-opacity:1;vector-effect:none;fill:#68d070;fill-opacity:1;fill-rule:nonzero;stroke:none;stroke-width:20;stroke-linecap:round;stroke-linejoin:round;stroke-miterlimit:4;stroke-dasharray:none;stroke-dashoffset:0;stroke-opacity:1;color-rendering:auto;image-rendering:auto;shape-rendering:auto;text-rendering:auto;enable-background:accumulate"
           inkscape:connector-curvature="0" />
        <path
           id="path5091-2-2-3-0-3"
           d="m -3107.1943,-212.02143 a 10,10 0 0 0 -10.0313,8.83985 c 0,0 -8.1955,63.49745 35.2793,103.24219 0.086,0.0903 6.4457,6.78609 16.8282,8.54297 5.2262,0.88437 11.9199,0.13394 17.75,-3.65429 3.9106,-2.54103 7.2533,-6.27478 10.1582,-11.00979 2.6484,0.30943 5.5492,0.42413 8.8222,-0.18163 5.0894,-0.94195 10.8711,-3.73483 15.293,-8.85741 2.7955,-3.23842 4.9649,-7.33393 6.6231,-12.14064 4.0588,0.006 8.7998,-0.45027 13.8222,-2.59765 6.0377,-2.58141 12.2361,-8.43212 14.6036,-16.69532 2.3674,-8.26319 1.5596,-18.06993 -2.3829,-30.54296 a 10,10 0 0 0 -12.5487,-6.52149 10,10 0 0 0 -6.5215,12.54883 c 3.2304,10.22056 3.0132,16.26236 2.2266,19.00781 -0.7867,2.74545 -1.4862,3.06446 -3.2403,3.81446 -3.5083,1.49999 -11.0704,0.46875 -11.0704,0.46875 a 10.001,10.001 0 0 0 -12.2324,8.0332 c -1.1184,6.55667 -2.9963,9.90968 -4.418,11.55663 -1.4217,1.64696 -2.4285,2.0069 -3.7949,2.25978 -2.7327,0.50578 -6.1699,-0.74414 -6.1699,-0.74414 a 10.001,10.001 0 0 0 -13.4746,5.17967 c -2.5989,6.18921 -5.1329,8.70241 -6.5918,9.65041 -1.459,0.94798 -2.1437,0.93917 -3.5156,0.70702 -2.7439,-0.46429 -6.3828,-3.30663 -6.3828,-3.30663 a 10.001,10.001 0 0 0 -0.1895,-0.17579 c -34.6095,-31.52194 -29.0078,-86.26367 -29.0078,-86.26367 a 10,10 0 0 0 -8.7735,-11.09375 10,10 0 0 0 -1.0605,-0.0664 z"
           style="color:#000000;font-style:normal;font-variant:normal;font-weight:normal;font-stretch:normal;font-size:medium;line-height:normal;font-family:sans-serif;font-variant-ligatures:normal;font-variant-position:normal;font-variant-caps:normal;font-variant-numeric:normal;font-variant-alternates:normal;font-feature-settings:normal;text-indent:0;text-align:start;text-decoration:none;text-decoration-line:none;text-decoration-style:solid;text-decoration-color:#000000;letter-spacing:normal;word-spacing:normal;text-transform:none;writing-mode:lr-tb;direction:ltr;text-orientation:mixed;dominant-baseline:auto;baseline-shift:baseline;text-anchor:start;white-space:normal;shape-padding:0;clip-rule:nonzero;display:inline;overflow:visible;visibility:visible;isolation:auto;mix-blend-mode:normal;color-interpolation:sRGB;color-interpolation-filters:linearRGB;solid-color:#000000;solid-opacity:1;vector-effect:none;fill:#68d070;fill-opacity:1;fill-rule:nonzero;stroke:none;stroke-width:20;stroke-linecap:round;stroke-linejoin:round;stroke-miterlimit:4;stroke-dasharray:none;stroke-dashoffset:0;stroke-opacity:1;color-rendering:auto;image-rendering:auto;shape-rendering:auto;text-rendering:auto;enable-background:accumulate"
           inkscape:connector-curvature="0" />
        <path
           id="path5095-6-9-6-6-6"
           d="m -3144.4873,-234.32611 a 10,10 0 0 0 -1.8711,0.16015 c 0,0 -63.1467,10.62702 -88.5254,63.79297 -0.071,0.12544 -4.6107,8.14098 -3.2734,18.57422 0.6739,5.25754 3.3381,11.44366 8.6582,15.91992 3.5684,3.00241 8.1134,5.11339 13.4883,6.51563 0.4742,2.62408 1.2086,5.43311 2.7402,8.38866 2.3814,4.59542 6.7347,9.31569 12.9219,12.05664 3.911,1.7326 8.4606,2.61591 13.541,2.80469 1.1748,3.88551 2.9901,8.28924 6.5059,12.47071 4.2258,5.02587 11.6261,9.25338 20.2207,9.11524 8.5945,-0.13816 17.744,-3.76248 28.5312,-11.16211 a 10,10 0 0 0 2.5899,-13.90234 10,10 0 0 0 -13.9043,-2.58985 c -8.8392,6.06335 -14.6835,7.61034 -17.5391,7.65625 -2.8555,0.0459 -3.3621,-0.52806 -4.5898,-1.98827 -2.4555,-2.92044 -3.67,-10.45704 -3.6699,-10.45704 a 10.001,10.001 0 0 0 -11.2422,-9.36718 c -6.5986,0.83685 -10.3526,0.0159 -12.3418,-0.86524 -1.9893,-0.88125 -2.6263,-1.74088 -3.2657,-2.97463 -1.2786,-2.46748 -1.0839,-6.11913 -1.0839,-6.11913 a 10.001,10.001 0 0 0 -8.8731,-11.38476 c -6.6775,-0.68647 -9.821,-2.38177 -11.1523,-3.50196 -1.3314,-1.12018 -1.5204,-1.77807 -1.6973,-3.1582 -0.3538,-2.76026 1.3066,-7.06836 1.3066,-7.06836 a 10.001,10.001 0 0 0 0.1133,-0.23047 c 20.0937,-42.28123 74.0977,-52.84375 74.0977,-52.84375 a 10,10 0 0 0 8.0625,-11.62109 10,10 0 0 0 -9.7481,-8.2207 z"
           style="color:#000000;font-style:normal;font-variant:normal;font-weight:normal;font-stretch:normal;font-size:medium;line-height:normal;font-family:sans-serif;font-variant-ligatures:normal;font-variant-position:normal;font-variant-caps:normal;font-variant-numeric:normal;font-variant-alternates:normal;font-feature-settings:normal;text-indent:0;text-align:start;text-decoration:none;text-decoration-line:none;text-decoration-style:solid;text-decoration-color:#000000;letter-spacing:normal;word-spacing:normal;text-transform:none;writing-mode:lr-tb;direction:ltr;text-orientation:mixed;dominant-baseline:auto;baseline-shift:baseline;text-anchor:start;white-space:normal;shape-padding:0;clip-rule:nonzero;display:inline;overflow:visible;visibility:visible;isolation:auto;mix-blend-mode:normal;color-interpolation:sRGB;color-interpolation-filters:linearRGB;solid-color:#000000;solid-opacity:1;vector-effect:none;fill:#68d070;fill-opacity:1;fill-rule:nonzero;stroke:none;stroke-width:20;stroke-linecap:round;stroke-linejoin:round;stroke-miterlimit:4;stroke-dasharray:none;stroke-dashoffset:0;stroke-opacity:1;color-rendering:auto;image-rendering:auto;shape-rendering:auto;text-rendering:auto;enable-background:accumulate"
           inkscape:connector-curvature="0" />
        <path
           id="path5099-1-3-0-2-0"
           d="m -3222.2548,-333.04877 c -3.4903,0.18304 -8.1637,0.96495 -12.8926,3.35938 -4.7289,2.39442 -9.6657,6.97501 -12.1035,13.48632 -1.6353,4.36782 -2.1045,9.35772 -1.627,14.89258 -2.3141,1.32496 -4.7138,2.95637 -6.9863,5.38867 -3.5336,3.78191 -6.5267,9.46321 -7.0391,16.21094 -0.3239,4.26557 0.3682,8.84818 1.8906,13.69922 -3.2684,2.40731 -6.8122,5.59206 -9.5761,10.30469 -3.322,5.66403 -4.8286,14.05072 -1.8223,22.10351 3.0063,8.0528 9.4816,15.46327 20.0645,23.15235 a 10,10 0 0 0 13.9687,-2.21289 10,10 0 0 0 -2.2129,-13.96875 c -8.6717,-6.30053 -12.0851,-11.28929 -13.084,-13.96485 -0.9988,-2.67556 -0.6272,-3.34655 0.3379,-4.99219 1.9304,-3.29127 8.627,-6.95703 8.627,-6.95703 a 10.001,10.001 0 0 0 5.0625,-13.72851 c -2.9968,-5.938 -3.4773,-9.7505 -3.3125,-11.91992 0.1647,-2.16943 0.7603,-3.05691 1.709,-4.07227 1.8973,-2.03071 5.4023,-3.07031 5.4023,-3.07031 a 10.001,10.001 0 0 0 7.7617,-12.17188 c -1.5877,-6.52225 -1.0436,-10.05025 -0.4336,-11.67968 0.6101,-1.62944 1.1669,-2.02967 2.4082,-2.65821 2.4827,-1.25707 7.0977,-1.13281 7.0977,-1.13281 a 10.001,10.001 0 0 0 0.2558,0.0293 c 46.568,4.78581 74.5938,52.14257 74.5938,52.14257 a 10,10 0 0 0 13.6484,3.70899 10,10 0 0 0 3.7071,-13.64844 c 0,0 -31.1474,-55.95136 -89.7442,-62.07226 -0.076,-0.0135 -2.2697,-0.40848 -5.7011,-0.22852 z"
           style="color:#000000;font-style:normal;font-variant:normal;font-weight:normal;font-stretch:normal;font-size:medium;line-height:normal;font-family:sans-serif;font-variant-ligatures:normal;font-variant-position:normal;font-variant-caps:normal;font-variant-numeric:normal;font-variant-alternates:normal;font-feature-settings:normal;text-indent:0;text-align:start;text-decoration:none;text-decoration-line:none;text-decoration-style:solid;text-decoration-color:#000000;letter-spacing:normal;word-spacing:normal;text-transform:none;writing-mode:lr-tb;direction:ltr;text-orientation:mixed;dominant-baseline:auto;baseline-shift:baseline;text-anchor:start;white-space:normal;shape-padding:0;clip-rule:nonzero;display:inline;overflow:visible;visibility:visible;isolation:auto;mix-blend-mode:normal;color-interpolation:sRGB;color-interpolation-filters:linearRGB;solid-color:#000000;solid-opacity:1;vector-effect:none;fill:#68d070;fill-opacity:1;fill-rule:nonzero;stroke:none;stroke-width:20;stroke-linecap:round;stroke-linejoin:round;stroke-miterlimit:4;stroke-dasharray:none;stroke-dashoffset:0;stroke-opacity:1;color-rendering:auto;image-rendering:auto;shape-rendering:auto;text-rendering:auto;enable-background:accumulate"
           inkscape:connector-curvature="0" />
        <path
           d="m -3096.6604,-236.8194 a 13.143041,13.143041 0 0 1 -13.143,13.14304 13.143041,13.143041 0 0 1 -13.1431,-13.14304 13.143041,13.143041 0 0 1 13.1431,-13.14304 13.143041,13.143041 0 0 1 13.143,13.14304"
           style="fill:#68d070;fill-opacity:1;stroke:#68d070;stroke-width:4.99999;stroke-linecap:round;stroke-linejoin:round;stroke-miterlimit:4;stroke-dasharray:none;stroke-opacity:1"
           id="path1225-1-8-1-6-6-62"
           inkscape:connector-curvature="0" />
      </g>
    </g>
    <path
       inkscape:connector-curvature="0"
       d="m -2604.343,525.4568 c -2.9507,0.3958 -6.0053,1.5224 -8.686,3.5989 -4.7,3.6407 -8.2611,9.4415 -11.1635,18.011 a 6.9164607,6.9164607 0 0 0 3.5165,8.4325 6.9164607,6.9164607 0 0 0 3.8344,-4.1406 c 2.3784,-7.022 4.9709,-10.3025 6.5326,-11.5121 1.5616,-1.2096 2.0813,-1.1015 3.3665,-0.8024 0.7007,0.1631 1.4921,0.5576 2.2735,1.0404 0.037,-0.03 0.076,-0.065 0.1115,-0.092 1.5615,-1.2096 2.0814,-1.1015 3.3666,-0.8024 2.5702,0.5982 6.3678,4.2661 6.3678,4.2661 a 6.9171522,6.9171522 0 0 0 2.2613,1.7664 6.9171522,6.9171522 0 0 0 2.0944,-1.3907 c 3.3055,-3.1997 5.724,-4.3018 7.1905,-4.6389 1.4666,-0.3372 2.1755,-0.1262 3.0411,0.2916 0.2988,0.1443 0.5871,0.3279 0.861,0.5304 0.7263,-0.3507 1.3456,-0.5603 1.8496,-0.6762 1.4665,-0.3372 2.1754,-0.1261 3.0408,0.2916 1.7312,0.8356 3.1368,2.938 3.1368,2.938 a 6.9171522,6.9171522 0 0 0 3.0395,2.9073 6.9171522,6.9171522 0 0 0 0.8435,-0.4307 c 3.9808,-2.3893 6.4226,-2.755 7.6241,-2.6871 1.0959,0.062 1.5082,0.309 2.0805,0.8753 1.733,-0.6477 2.9357,-0.771 3.6711,-0.7295 1.2015,0.068 1.5789,0.3538 2.2492,1.0444 1.3405,1.3812 2.2085,4.4538 2.2085,4.4538 a 6.9171522,6.9171522 0 0 0 0.032,0.1755 c 6.412,31.7368 -19.0997,59.9801 -19.0997,59.9801 a 6.9164607,6.9164607 0 0 0 0.3563,9.7746 6.9164607,6.9164607 0 0 0 1.6735,1.1488 6.9164607,6.9164607 0 0 0 2.3489,-1.6509 c 0,0 30.5495,-32.0733 22.5445,-72.0298 -0.014,-0.1104 -0.8276,-6.4167 -5.8899,-11.6325 -2.1409,-2.2058 -5.3273,-4.1906 -9.1309,-4.9345 -2.1574,0.2799 -4.3844,0.9081 -6.6812,1.8464 -0.5376,-0.4998 -1.1127,-0.998 -1.7378,-1.4808 -1.3136,0.3311 -2.6514,0.7784 -4.0138,1.335 -1.3505,-1.2556 -2.9212,-2.5064 -4.9942,-3.507 -1.3628,-0.6578 -2.9315,-1.1789 -4.6312,-1.4854 -0.5852,0.076 -1.1757,0.1804 -1.7697,0.317 -2.8837,0.663 -5.7685,2.0603 -8.6593,4.0631 -0.8824,-0.6491 -1.8529,-1.3009 -2.9254,-1.9061 -0.9416,0.5199 -1.8833,1.1076 -2.8259,1.7607 -2.2615,-1.6636 -5.0923,-3.3489 -8.7724,-4.2054 -0.1762,-0.041 -0.3555,-0.078 -0.5361,-0.1137 z"
       style="color:#000000;font-style:normal;font-variant:normal;font-weight:normal;font-stretch:normal;font-size:medium;line-height:normal;font-family:sans-serif;font-variant-ligatures:normal;font-variant-position:normal;font-variant-caps:normal;font-variant-numeric:normal;font-variant-alternates:normal;font-feature-settings:normal;text-indent:0;text-align:start;text-decoration:none;text-decoration-line:none;text-decoration-style:solid;text-decoration-color:#000000;letter-spacing:normal;word-spacing:normal;text-transform:none;writing-mode:lr-tb;direction:ltr;text-orientation:mixed;dominant-baseline:auto;baseline-shift:baseline;text-anchor:start;white-space:normal;shape-padding:0;clip-rule:nonzero;display:inline;overflow:visible;visibility:visible;isolation:auto;mix-blend-mode:normal;color-interpolation:sRGB;color-interpolation-filters:linearRGB;solid-color:#000000;solid-opacity:1;vector-effect:none;fill:#000000;fill-opacity:1;fill-rule:nonzero;stroke:none;stroke-width:13.8329;stroke-linecap:round;stroke-linejoin:round;stroke-miterlimit:4;stroke-dasharray:none;stroke-dashoffset:0;stroke-opacity:1;color-rendering:auto;image-rendering:auto;shape-rendering:auto;text-rendering:auto;enable-background:accumulate"
       id="path5083-7-6-8-6" />
    <path
       inkscape:connector-curvature="0"
       d="m -2509.4028,562.8521 a 6.9164607,6.9164607 0 0 0 -5.927,6.7473 6.9164607,6.9164607 0 0 0 6.8181,7.0136 c 7.413,0.1054 11.3318,1.5659 12.9628,2.6803 1.631,1.1143 1.6876,1.6406 1.7978,2.9555 0.2206,2.6298 -2.103,7.3717 -2.103,7.3717 a 6.9171522,6.9171522 0 0 0 2.6084,9.7775 c 4.0606,2.1623 5.8533,4.1265 6.6248,5.4185 0.7715,1.292 0.7882,2.0306 0.6565,2.9826 -0.2631,1.9041 -1.8317,3.8891 -1.8317,3.8891 a 6.9171522,6.9171522 0 0 0 0.4646,9.9723 c 3.4969,3.0541 4.595,5.2672 4.8995,6.4314 0.3046,1.1642 0.1485,1.6115 -0.3027,2.4616 -0.9024,1.7 -3.5592,3.4687 -3.5592,3.4687 a 6.9171522,6.9171522 0 0 0 -0.1569,0.086 c -11.1653,6.2702 -23.3434,7.6184 -33.9887,6.9596 -18.4137,0.2305 -33.7623,-6.4338 -34.5934,-6.8009 a 6.9164607,6.9164607 0 0 0 -3.557,3.4373 6.9164607,6.9164607 0 0 0 3.3418,9.1928 c 0,0 14.6831,7.0671 34.1717,8.1905 11.2258,-0.078 23.6267,-2.3489 35.542,-9.013 0.089,-0.042 5.8558,-2.7552 9.2671,-9.182 1.7189,-3.2382 2.6839,-7.7959 1.4669,-12.4482 -0.8164,-3.1204 -2.5388,-6.1274 -5.0142,-9.0655 0.7799,-1.6712 1.4854,-3.5515 1.8006,-5.832 0.4901,-3.5461 -0.083,-7.95 -2.4829,-11.9685 -1.517,-2.5404 -3.7334,-4.8553 -6.5276,-6.9908 0.8882,-2.6633 1.6222,-5.8745 1.3064,-9.6399 -0.3794,-4.5257 -2.8709,-9.8684 -7.7796,-13.2223 -4.023,-2.7486 -9.1915,-4.3237 -15.9051,-4.8737 z"
       style="color:#000000;font-style:normal;font-variant:normal;font-weight:normal;font-stretch:normal;font-size:medium;line-height:normal;font-family:sans-serif;font-variant-ligatures:normal;font-variant-position:normal;font-variant-caps:normal;font-variant-numeric:normal;font-variant-alternates:normal;font-feature-settings:normal;text-indent:0;text-align:start;text-decoration:none;text-decoration-line:none;text-decoration-style:solid;text-decoration-color:#000000;letter-spacing:normal;word-spacing:normal;text-transform:none;writing-mode:lr-tb;direction:ltr;text-orientation:mixed;dominant-baseline:auto;baseline-shift:baseline;text-anchor:start;white-space:normal;shape-padding:0;clip-rule:nonzero;display:inline;overflow:visible;visibility:visible;isolation:auto;mix-blend-mode:normal;color-interpolation:sRGB;color-interpolation-filters:linearRGB;solid-color:#000000;solid-opacity:1;vector-effect:none;fill:#000000;fill-opacity:1;fill-rule:nonzero;stroke:none;stroke-width:13.8329;stroke-linecap:round;stroke-linejoin:round;stroke-miterlimit:4;stroke-dasharray:none;stroke-dashoffset:0;stroke-opacity:1;color-rendering:auto;image-rendering:auto;shape-rendering:auto;text-rendering:auto;enable-background:accumulate"
       id="path5087-9-1-7-1" />
    <path
       inkscape:connector-curvature="0"
       d="m -2577.0081,653.5819 a 6.9164607,6.9164607 0 0 0 -4.1539,5.5585 c 0,0 -5.6681,43.9179 24.401,71.4072 0.058,0.061 4.2679,4.4893 11.1697,5.8212 2.3318,-0.3252 4.755,-1.1307 6.9946,-2.5859 2.7048,-1.7575 5.017,-4.3398 7.0262,-7.6148 1.8317,0.214 3.838,0.2932 6.1018,-0.1258 3.5201,-0.6515 7.5187,-2.5831 10.5771,-6.1261 1.9335,-2.2399 3.4341,-5.0723 4.581,-8.3968 2.8072,0 6.0861,-0.3116 9.5598,-1.7968 4.176,-1.7854 8.4632,-5.8319 10.1007,-11.5471 1.6374,-5.7152 1.0787,-12.4983 -1.6481,-21.1252 a 6.9164607,6.9164607 0 0 0 -3.5598,-4.1307 6.9164607,6.9164607 0 0 0 -3.8788,8.4455 c 2.2344,7.069 2.0842,11.2476 1.5402,13.1465 -0.5441,1.8989 -1.0278,2.1197 -2.241,2.6385 -2.4265,1.0374 -7.657,0.3242 -7.657,0.3242 a 6.9171522,6.9171522 0 0 0 -0.054,-0.013 c -1.1368,0.1311 -2.3894,0.1209 -3.4338,0.066 a 6.9171522,6.9171522 0 0 0 -4.9723,5.5028 c -0.7736,4.5349 -2.0723,6.8539 -3.0556,7.993 -0.9833,1.1391 -1.6798,1.388 -2.6249,1.5629 -1.8901,0.3499 -4.2672,-0.5146 -4.2672,-0.5146 a 6.9171522,6.9171522 0 0 0 -0.1537,-0.07 c -0.4263,0.2389 -0.8455,0.3488 -1.3303,0.4385 -1.757,0.3252 -3.8567,-0.3746 -4.1546,-0.4782 a 6.9171522,6.9171522 0 0 0 -3.6811,3.6918 c -1.7975,4.2807 -3.5502,6.0191 -4.5592,6.6747 -1.0091,0.6557 -1.4827,0.6496 -2.4315,0.489 -0.8656,-0.1465 -1.8579,-0.6348 -2.6835,-1.123 -0.2348,0.2064 -0.4488,0.3662 -0.6366,0.4882 -1.009,0.6557 -1.4826,0.6495 -2.4315,0.489 -1.8978,-0.3212 -4.4145,-2.2868 -4.4145,-2.2868 a 6.9171522,6.9171522 0 0 0 -0.1311,-0.1215 c -23.9375,-21.802 -20.0634,-59.6642 -20.0634,-59.6642 a 6.9164607,6.9164607 0 0 0 -3.8344,-7.0175 z"
       style="color:#000000;font-style:normal;font-variant:normal;font-weight:normal;font-stretch:normal;font-size:medium;line-height:normal;font-family:sans-serif;font-variant-ligatures:normal;font-variant-position:normal;font-variant-caps:normal;font-variant-numeric:normal;font-variant-alternates:normal;font-feature-settings:normal;text-indent:0;text-align:start;text-decoration:none;text-decoration-line:none;text-decoration-style:solid;text-decoration-color:#000000;letter-spacing:normal;word-spacing:normal;text-transform:none;writing-mode:lr-tb;direction:ltr;text-orientation:mixed;dominant-baseline:auto;baseline-shift:baseline;text-anchor:start;white-space:normal;shape-padding:0;clip-rule:nonzero;display:inline;overflow:visible;visibility:visible;isolation:auto;mix-blend-mode:normal;color-interpolation:sRGB;color-interpolation-filters:linearRGB;solid-color:#000000;solid-opacity:1;vector-effect:none;fill:#000000;fill-opacity:1;fill-rule:nonzero;stroke:none;stroke-width:13.8329;stroke-linecap:round;stroke-linejoin:round;stroke-miterlimit:4;stroke-dasharray:none;stroke-dashoffset:0;stroke-opacity:1;color-rendering:auto;image-rendering:auto;shape-rendering:auto;text-rendering:auto;enable-background:accumulate"
       id="path5091-20-8-9-8" />
    <path
       inkscape:connector-curvature="0"
       d="m -2603.0152,638.0531 c -8.1842,1.7866 -44.0262,11.312 -59.5243,43.7791 -0.049,0.087 -3.1889,5.6309 -2.2639,12.847 0.4661,3.6364 2.3085,7.915 5.9881,11.011 2.4681,2.0766 5.6118,3.5365 9.3294,4.5063 0.3279,1.815 0.8356,3.7578 1.8949,5.802 1.6472,3.1784 4.6583,6.4432 8.9377,8.3389 2.705,1.1984 5.8515,1.8095 9.3654,1.9401 0.8125,2.6874 2.0683,5.7331 4.5,8.6252 2.3302,2.7717 6.0576,5.1904 10.4854,6.0093 5.2948,-0.6144 10.955,-3.0935 17.4821,-7.5708 a 6.9164607,6.9164607 0 0 0 1.7914,-9.6153 6.9164607,6.9164607 0 0 0 -2.6688,-2.3029 6.9164607,6.9164607 0 0 0 -1.1967,0.6573 c -6.1136,4.1937 -10.1562,5.2634 -12.1311,5.2952 -1.4936,0.024 -2.058,-0.1981 -2.6117,-0.7442 -1.3432,0.4242 -2.3907,0.5867 -3.1395,0.5987 -1.9751,0.032 -2.3254,-0.3654 -3.1747,-1.3753 -1.6982,-2.0199 -2.5384,-7.2327 -2.5384,-7.2327 a 6.9171522,6.9171522 0 0 0 -4.5389,-6.1155 c -1.758,0.075 -3.1272,-0.047 -4.1824,-0.2577 -3.9802,0.3906 -6.3127,-0.1378 -7.5902,-0.7037 -1.3758,-0.6095 -1.8166,-1.2044 -2.2587,-2.0577 -0.8845,-1.7066 -0.7496,-4.2322 -0.7496,-4.2322 a 6.9171522,6.9171522 0 0 0 -6.1372,-7.8742 c -4.6185,-0.4748 -6.7927,-1.6475 -7.7135,-2.4223 -0.9209,-0.7747 -1.0514,-1.2296 -1.1738,-2.1841 -0.2447,-1.9092 0.9036,-4.8888 0.9036,-4.8888 a 6.9171522,6.9171522 0 0 0 0.078,-0.1594 c 13.8976,-29.2436 51.2493,-36.5492 51.2493,-36.5492 a 6.9164607,6.9164607 0 0 0 5.5765,-8.0376 6.9164607,6.9164607 0 0 0 -3.9888,-5.0865 z"
       style="color:#000000;font-style:normal;font-variant:normal;font-weight:normal;font-stretch:normal;font-size:medium;line-height:normal;font-family:sans-serif;font-variant-ligatures:normal;font-variant-position:normal;font-variant-caps:normal;font-variant-numeric:normal;font-variant-alternates:normal;font-feature-settings:normal;text-indent:0;text-align:start;text-decoration:none;text-decoration-line:none;text-decoration-style:solid;text-decoration-color:#000000;letter-spacing:normal;word-spacing:normal;text-transform:none;writing-mode:lr-tb;direction:ltr;text-orientation:mixed;dominant-baseline:auto;baseline-shift:baseline;text-anchor:start;white-space:normal;shape-padding:0;clip-rule:nonzero;display:inline;overflow:visible;visibility:visible;isolation:auto;mix-blend-mode:normal;color-interpolation:sRGB;color-interpolation-filters:linearRGB;solid-color:#000000;solid-opacity:1;vector-effect:none;fill:#000000;fill-opacity:1;fill-rule:nonzero;stroke:none;stroke-width:13.8329;stroke-linecap:round;stroke-linejoin:round;stroke-miterlimit:4;stroke-dasharray:none;stroke-dashoffset:0;stroke-opacity:1;color-rendering:auto;image-rendering:auto;shape-rendering:auto;text-rendering:auto;enable-background:accumulate"
       id="path5095-2-7-2-79" />
    <path
       inkscape:connector-curvature="0"
       d="m -2654.9356,569.406 c -2.2474,0.2259 -5.0021,0.8259 -7.7862,2.2357 -3.2707,1.6561 -6.6855,4.8243 -8.3716,9.3279 -1.1309,3.021 -1.4554,6.4722 -1.1251,10.3004 -1.6005,0.9164 -3.2604,2.0449 -4.8322,3.7272 -2.4441,2.6157 -4.514,6.5451 -4.8685,11.2122 -0.224,2.9502 0.2546,6.1196 1.3075,9.4747 -2.2606,1.6651 -4.7113,3.8679 -6.623,7.1273 -2.2976,3.9175 -3.3399,9.7182 -1.2605,15.2879 2.0792,5.5697 6.5577,10.6952 13.8774,16.0134 a 6.9164607,6.9164607 0 0 0 1.0305,0.6194 6.9164607,6.9164607 0 0 0 2.8797,-2.2957 6.9164607,6.9164607 0 0 0 -1.5305,-9.6618 c -5.9977,-4.3577 -8.3589,-7.8079 -9.0498,-9.6585 -0.6908,-1.8505 -0.4338,-2.3148 0.2337,-3.453 1.3352,-2.2764 5.9671,-4.8115 5.9671,-4.8115 a 6.9171522,6.9171522 0 0 0 3.5013,-9.4956 c -2.0727,-4.107 -2.405,-6.7437 -2.291,-8.2442 0.1138,-1.5004 0.5258,-2.1145 1.182,-2.8168 1.3121,-1.4045 3.7363,-2.1234 3.7363,-2.1234 a 6.9171522,6.9171522 0 0 0 5.3684,-8.4186 c -1.098,-4.5111 -0.7218,-6.9514 -0.2998,-8.0784 0.422,-1.127 0.8071,-1.4035 1.6655,-1.8382 1.7173,-0.8694 4.9093,-0.7838 4.9093,-0.7838 a 6.9171522,6.9171522 0 0 0 0.1768,0.02 c 0.8776,0.09 1.745,0.2033 2.6035,0.336 1.4879,-0.2499 2.9711,-0.2106 2.9711,-0.2106 a 6.9171522,6.9171522 0 0 0 0.177,0.02 c 32.2086,3.3101 51.5926,36.0642 51.5926,36.0642 a 6.9164607,6.9164607 0 0 0 2.9673,2.7782 6.9164607,6.9164607 0 0 0 0.7209,-0.3589 6.9164607,6.9164607 0 0 0 2.5641,-9.4397 c 0,0 -21.3035,-38.2656 -61.3938,-42.8566 z"
       style="color:#000000;font-style:normal;font-variant:normal;font-weight:normal;font-stretch:normal;font-size:medium;line-height:normal;font-family:sans-serif;font-variant-ligatures:normal;font-variant-position:normal;font-variant-caps:normal;font-variant-numeric:normal;font-variant-alternates:normal;font-feature-settings:normal;text-indent:0;text-align:start;text-decoration:none;text-decoration-line:none;text-decoration-style:solid;text-decoration-color:#000000;letter-spacing:normal;word-spacing:normal;text-transform:none;writing-mode:lr-tb;direction:ltr;text-orientation:mixed;dominant-baseline:auto;baseline-shift:baseline;text-anchor:start;white-space:normal;shape-padding:0;clip-rule:nonzero;display:inline;overflow:visible;visibility:visible;isolation:auto;mix-blend-mode:normal;color-interpolation:sRGB;color-interpolation-filters:linearRGB;solid-color:#000000;solid-opacity:1;vector-effect:none;fill:#000000;fill-opacity:1;fill-rule:nonzero;stroke:none;stroke-width:13.8329;stroke-linecap:round;stroke-linejoin:round;stroke-miterlimit:4;stroke-dasharray:none;stroke-dashoffset:0;stroke-opacity:1;color-rendering:auto;image-rendering:auto;shape-rendering:auto;text-rendering:auto;enable-background:accumulate"
       id="path5099-3-92-0-2" />
    <path
       inkscape:connector-curvature="0"
       d="m -2578.6854,627.1819 a 9.0903326,9.0903326 0 0 0 -6.4332,8.6932 9.0903326,9.0903326 0 0 0 5.9962,8.5472 9.0903326,9.0903326 0 0 0 6.4331,-8.6931 9.0903326,9.0903326 0 0 0 -5.9961,-8.5473 z"
       style="fill:#000000;fill-opacity:1;stroke:#000000;stroke-width:3.45822;stroke-linecap:round;stroke-linejoin:round;stroke-miterlimit:4;stroke-dasharray:none;stroke-opacity:1"
       id="path1225-1-7-0-2-0" />
  </g>
</svg>
